HIERARCHY
ROOT Hips
{
	OFFSET -0.001795 -0.223333 0.028219
	CHANNELS 6 Xposition Yposition Zposition Zrotation Yrotation Xrotation 
	JOINT LeftUpLeg
	{
		OFFSET 0.069520 -0.091406 -0.006815
		CHANNELS 3 Zrotation Yrotation Xrotation
		JOINT LeftLeg
		{
			OFFSET 0.034277 -0.375199 -0.004496
			CHANNELS 3 Zrotation Yrotation Xrotation
			JOINT LeftFoot
			{
				OFFSET -0.013596 -0.397961 -0.043693
				CHANNELS 3 Zrotation Yrotation Xrotation
				JOINT LeftToe
				{
					OFFSET 0.026358 -0.055791 0.119288
					CHANNELS 3 Zrotation Yrotation Xrotation
					End Site
					{
						OFFSET 0.000000 0.000000 0.000000
					}
				}
			}
		}
	}
	JOINT RightUpLeg
	{
		OFFSET -0.067670 -0.090522 -0.004320
		CHANNELS 3 Zrotation Yrotation Xrotation
		JOINT RightLeg
		{
			OFFSET -0.038290 -0.382569 -0.008850
			CHANNELS 3 Zrotation Yrotation Xrotation
			JOINT RightFoot
			{
				OFFSET 0.015774 -0.398415 -0.042312
				CHANNELS 3 Zrotation Yrotation Xrotation
				JOINT RightToe
				{
					OFFSET -0.025372 -0.048144 0.123348
					CHANNELS 3 Zrotation Yrotation Xrotation
					End Site
					{
						OFFSET 0.000000 0.000000 0.000000
					}
				}
			}
		}
	}
	JOINT Spine
	{
		OFFSET -0.002533 0.108963 -0.026696
		CHANNELS 3 Zrotation Yrotation Xrotation
		JOINT Spine1
		{
			OFFSET 0.005487 0.135180 0.001092
			CHANNELS 3 Zrotation Yrotation Xrotation
			JOINT Spine2
			{
				OFFSET 0.001457 0.052922 0.025425
				CHANNELS 3 Zrotation Yrotation Xrotation
				JOINT Neck
				{
					OFFSET -0.002778 0.213870 -0.042857
					CHANNELS 3 Zrotation Yrotation Xrotation
					JOINT Head
					{
						OFFSET 0.005152 0.064970 0.051349
						CHANNELS 3 Zrotation Yrotation Xrotation
						End Site
						{
							OFFSET 0.000000 0.000000 0.000000
						}
					}
				}
				JOINT LeftShoulder
				{
					OFFSET 0.078845 0.121749 -0.034090
					CHANNELS 3 Zrotation Yrotation Xrotation
					JOINT LeftArm
					{
						OFFSET 0.090977 0.030469 -0.008868
						CHANNELS 3 Zrotation Yrotation Xrotation
						JOINT LeftForeArm
						{
							OFFSET 0.259612 -0.012772 -0.027456
							CHANNELS 3 Zrotation Yrotation Xrotation
							JOINT LeftHand
							{
								OFFSET 0.249234 0.008986 -0.001171
								CHANNELS 3 Zrotation Yrotation Xrotation
								End Site
								{
									OFFSET 0.000000 0.000000 0.000000
								}
							}
						}
					}
				}
				JOINT RightShoulder
				{
					OFFSET -0.081759 0.118833 -0.038615
					CHANNELS 3 Zrotation Yrotation Xrotation
					JOINT RightArm
					{
						OFFSET -0.096012 0.032551 -0.009143
						CHANNELS 3 Zrotation Yrotation Xrotation
						JOINT RightForeArm
						{
							OFFSET -0.253742 -0.013329 -0.021401
							CHANNELS 3 Zrotation Yrotation Xrotation
							JOINT RightHand
							{
								OFFSET -0.255298 0.007772 -0.005559
								CHANNELS 3 Zrotation Yrotation Xrotation
								End Site
								{
									OFFSET 0.000000 0.000000 0.000000
								}
							}
						}
					}
				}
			}
		}
	}
}
MOTION
Frames: 7
Frame Time: 0.050000
0.000000 0.948771 0.000000 -1.264060 1.011333 -0.093845 6.941199 0.041461 4.948614 -4.661047 0.448801 -6.762339 4.943699 12.731700 12.332045 0.000000 0.000000 0.000000 -3.421340 -0.167331 3.316973 2.953408 -0.361452 -2.986717 -4.642122 -13.603548 12.057618 0.000000 0.000000 0.000000 -0.706741 -0.110936 3.325529 3.556978 -0.285599 -23.202981 -1.327691 -0.539796 29.576794 1.859844 0.432373 -25.507671 0.000000 0.000000 0.000000 -25.303327 1.775826 -2.573499 -54.081362 -3.951386 -7.332539 -9.637862 -26.058333 3.696440 0.000000 0.000000 0.000000 16.610708 1.717474 0.138876 61.142511 3.365156 -7.092743 5.624731 27.560122 2.703531 0.000000 0.000000 0.000000 
0.000081 0.947677 0.001647 -1.458271 0.682934 0.323833 7.252902 0.026144 5.054058 -4.625453 0.445601 -7.443057 5.129260 12.910355 11.809808 0.000000 0.000000 0.000000 -3.285299 -0.132600 2.839575 2.956210 -0.354329 -2.652096 -4.541513 -13.370718 11.515309 0.000000 0.000000 0.000000 -0.436598 -0.101839 2.826474 3.349138 -0.237517 -23.240254 -1.524823 -0.759569 29.637925 1.683342 0.504054 -26.005446 0.000000 0.000000 0.000000 -25.993042 3.229859 -3.428479 -53.529565 -3.670880 -7.414333 -9.650193 -25.926959 3.708270 0.000000 0.000000 0.000000 15.621462 1.639016 0.048385 62.745054 2.150251 -7.880687 5.390467 29.248612 2.848805 0.000000 0.000000 0.000000 
0.000039 0.947356 0.002936 -1.075477 0.585310 0.393967 7.026270 0.032027 4.692518 -5.068052 0.479037 -6.299346 5.148783 12.882964 11.487123 0.000000 0.000000 0.000000 -3.687777 -0.127839 3.073385 2.434500 -0.321173 -3.284363 -4.252869 -12.936454 12.132940 0.000000 0.000000 0.000000 -0.720755 -0.078038 2.439322 3.017747 -0.150287 -23.293283 -1.759186 -1.273597 29.686565 1.354964 0.569469 -25.649506 0.000000 0.000000 0.000000 -25.800356 3.215470 -3.178219 -53.729798 -3.556111 -7.549910 -8.016647 -24.915413 3.217251 0.000000 0.000000 0.000000 16.154729 2.272223 0.208107 62.377269 1.644443 -8.112609 4.393118 28.031239 2.413113 0.000000 0.000000 0.000000 
-0.000159 0.946896 0.004177 -1.098725 0.304581 0.216532 7.365618 0.035982 5.197138 -5.248808 0.490437 -6.501506 5.099323 12.807224 11.625979 0.000000 0.000000 0.000000 -3.591065 -0.149073 3.332657 2.403722 -0.315900 -3.203845 -4.256747 -12.985170 12.216721 0.000000 0.000000 0.000000 -0.902373 -0.065811 2.224141 3.369324 -0.226838 -23.620300 -2.060675 -1.636002 29.948560 1.657706 0.246423 -25.009668 0.000000 0.000000 0.000000 -26.673375 4.283333 -3.763209 -53.418785 -2.810316 -7.887597 -7.830245 -24.320689 3.126944 0.000000 0.000000 0.000000 15.642582 2.612404 0.294096 62.681971 1.236225 -8.401778 4.550646 28.177225 2.438211 0.000000 0.000000 0.000000 
-0.000413 0.947141 0.005112 -1.130232 0.376584 0.064577 7.258377 0.048802 5.421342 -5.060040 0.478573 -6.593935 4.641504 12.108333 11.749036 0.000000 0.000000 0.000000 -3.618416 -0.182364 3.802409 2.198719 -0.309943 -3.686922 -4.234089 -12.974820 12.477071 0.000000 0.000000 0.000000 -0.913095 -0.072262 2.414658 3.624708 -0.308557 -23.272955 -2.389841 -1.590510 29.255666 1.685792 0.204788 -24.258697 0.000000 0.000000 0.000000 -26.713276 4.273403 -3.833718 -53.290640 -2.237598 -8.025720 -7.723400 -23.728953 2.995822 0.000000 0.000000 0.000000 15.334598 2.388123 0.194592 62.813857 0.562111 -8.684823 5.077631 28.037298 2.533668 0.000000 0.000000 0.000000 
-0.000512 0.947345 0.005635 -1.177283 0.205687 0.075382 7.168585 0.058427 5.426889 -4.835659 0.468803 -6.681328 4.539499 11.929338 11.724139 0.000000 0.000000 0.000000 -3.692416 -0.190303 4.007994 2.183951 -0.312115 -3.882443 -3.977760 -12.539936 12.567755 0.000000 0.000000 0.000000 -1.013741 -0.059823 2.121273 3.700997 -0.329270 -23.298736 -2.482281 -1.634431 29.464446 1.822597 0.093536 -24.249603 0.000000 0.000000 0.000000 -26.645080 4.389246 -3.840625 -53.345384 -1.959897 -8.176915 -7.474744 -23.209175 2.877577 0.000000 0.000000 0.000000 14.954054 2.484614 0.235700 62.915184 0.260945 -8.885039 5.010926 28.034991 2.509322 0.000000 0.000000 0.000000 
-0.000554 0.947347 0.005784 -1.215185 0.237410 0.040053 7.250067 0.052862 5.416995 -4.895794 0.470802 -6.741657 4.648434 12.178350 12.164272 0.000000 0.000000 0.000000 -3.608920 -0.190600 3.931883 1.991965 -0.295246 -3.740583 -3.812657 -12.227950 12.524650 0.000000 0.000000 0.000000 -1.029585 -0.058534 2.089667 3.782867 -0.365121 -23.033853 -2.583085 -1.703668 29.281548 1.949186 0.008575 -24.225127 0.000000 0.000000 0.000000 -26.699774 4.544210 -3.940432 -53.115936 -1.421792 -8.358767 -7.821949 -23.011178 2.916296 0.000000 0.000000 0.000000 14.889294 2.543935 0.253570 62.622328 0.111900 -8.907716 5.244801 28.326031 2.584163 0.000000 0.000000 0.000000 
